<svg xmlns="http://www.w3.org/2000/svg" width="36.521" height="36.522" viewBox="0 0 36.521 36.522">
  <g id="Group_4041" data-name="Group 4041" transform="translate(-1021.935 2500.546)">
    <path id="Path_10732" data-name="Path 10732" d="M2272.567,36.522h-21.481a7.52,7.52,0,0,1-7.52-7.52V7.52a7.52,7.52,0,0,1,7.52-7.52h21.481a7.52,7.52,0,0,1,7.52,7.52V29a7.52,7.52,0,0,1-7.52,7.52" transform="translate(-1221.631 -2500.546)" fill="#065885"/>
    <g id="YouTube_full-color_icon__2017_" data-name="YouTube_full-color_icon_(2017)" transform="translate(1027.977 -2491.152)">
      <path id="Path_10868" data-name="Path 10868" d="M25.729,3.164A3.135,3.135,0,0,0,23.516.951C22.067.392,8.028.118,3.956.967A3.135,3.135,0,0,0,1.743,3.18a35.244,35.244,0,0,0,.016,12.009A3.135,3.135,0,0,0,3.972,17.4c2.87.661,16.514.754,19.561,0a3.135,3.135,0,0,0,2.213-2.213A33.271,33.271,0,0,0,25.729,3.164Z" transform="translate(-1.236 -0.427)" fill="#fff"/>
      <path id="Path_10869" data-name="Path 10869" d="M70.742,35.352,64.2,31.6v7.5Z" transform="translate(-54.105 -26.602)" fill="#065885"/>
    </g>
  </g>
</svg>
