<svg xmlns="http://www.w3.org/2000/svg" width="36.522" height="36.522" viewBox="0 0 36.522 36.522">
  <g id="Group_4040" data-name="Group 4040" transform="translate(-976.22 2500.73)">
    <path id="Path_10739" data-name="Path 10739" d="M1150.784,36.522H1129.3a7.52,7.52,0,0,1-7.52-7.52V7.52A7.52,7.52,0,0,1,1129.3,0h21.481a7.52,7.52,0,0,1,7.52,7.52V29a7.52,7.52,0,0,1-7.52,7.52" transform="translate(-145.563 -2500.73)" fill="#065885"/>
    <path id="Path_10740" data-name="Path 10740" d="M1199.99,107.576a9.147,9.147,0,0,0,6.2-1.816,4.81,4.81,0,0,1-4.06-3.086,6.434,6.434,0,0,0,1.666-.163c-1.928-.845-3.177-2.116-3.229-4.312.607.054,1.07.449,1.8.4-1.777-1.736-2.316-3.621-1.2-5.92a12.951,12.951,0,0,0,6.663,4.25c.144.037.287.077.431.11a8.788,8.788,0,0,0,1.9.443c.713-.089,0-.907.182-1.97a4.35,4.35,0,0,1,6.9-2.873,1.944,1.944,0,0,0,2.182.215c.406-.181.817-.353,1.3-.56-.111.949-.834,1.464-1.414,2.17a3.223,3.223,0,0,0,1.8-.232,3.014,3.014,0,0,1-1.179,1.441,1.69,1.69,0,0,0-.689,1.418c-.3,9.539-11.135,16.918-18.547,11.045-.718-.569-.019,0-.706-.556" transform="translate(-216.068 -2583.471)" fill="#fcfdfe"/>
  </g>
</svg>
